<svg width="17" height="30" viewBox="0 0 17 30" fill="none" xmlns="http://www.w3.org/2000/svg">
<path d="M14.6045 10.5001H11V7.50006C11 5.95206 11.126 4.97706 13.3445 4.97706H14.6465C15.4745 4.97706 16.1465 4.30506 16.1465 3.47706V1.59606C16.1465 0.811556 15.545 0.141056 14.762 0.0885562C13.856 0.0270562 12.9485 -0.0014438 12.0395 5.62032e-05C7.97 5.62032e-05 5 2.48556 5 7.04856V10.5001H2C1.172 10.5001 0.5 11.1721 0.5 12.0001V15.0001C0.5 15.8281 1.172 16.5001 2 16.5001L5 16.4986V28.5001C5 29.3281 5.672 30.0001 6.5 30.0001H9.5C10.328 30.0001 11 29.3281 11 28.5001V16.4956L14.261 16.4941C15.023 16.4941 15.6635 15.9226 15.7505 15.1651L16.094 12.1711C16.1975 11.2816 15.5015 10.5001 14.6045 10.5001Z" fill="white"/>
</svg>
