<svg width="24" height="20" viewBox="0 0 24 20" fill="none" xmlns="http://www.w3.org/2000/svg">
<path d="M21.3333 0.666504H2.66659C1.38325 0.666504 0.344919 1.7165 0.344919 2.99984L0.333252 16.9998C0.333252 18.2832 1.38325 19.3332 2.66659 19.3332H21.3333C22.6166 19.3332 23.6666 18.2832 23.6666 16.9998V2.99984C23.6666 1.7165 22.6166 0.666504 21.3333 0.666504ZM20.1666 16.9998H3.83325C3.19159 16.9998 2.66659 16.4748 2.66659 15.8332V5.33317L10.7633 10.3965C11.5216 10.8748 12.4783 10.8748 13.2366 10.3965L21.3333 5.33317V15.8332C21.3333 16.4748 20.8083 16.9998 20.1666 16.9998ZM11.9999 8.83317L2.66659 2.99984H21.3333L11.9999 8.83317Z" fill="white"/>
</svg>
