<svg width="30" height="25" viewBox="0 0 30 25" fill="none" xmlns="http://www.w3.org/2000/svg">
<path d="M29.451 1.04626C28.2285 1.62376 26.148 2.70676 25.1025 2.91376C25.062 2.92426 25.029 2.93776 24.99 2.94826C23.7705 1.74526 22.0995 0.999759 20.25 0.999759C16.5225 0.999759 13.5 4.02226 13.5 7.74976C13.5 7.94626 13.4835 8.30776 13.5 8.49976C8.673 8.49976 5.148 5.98126 2.5095 2.74426C2.157 2.30926 1.782 2.53576 1.704 2.84476C1.5285 3.54376 1.4685 4.71226 1.4685 5.54626C1.4685 7.64776 3.111 9.71176 5.6685 10.9913C5.1975 11.1128 4.6785 11.1998 4.1385 11.1998C3.5025 11.1998 2.7705 11.0333 2.13 10.6973C1.893 10.5728 1.3815 10.6073 1.533 11.2133C2.1405 13.6418 4.9125 15.3473 7.389 15.8438C6.8265 16.1753 5.6265 16.1078 5.0745 16.1078C4.8705 16.1078 4.161 16.0598 3.702 16.0028C3.2835 15.9518 2.64 16.0598 3.1785 16.8758C4.335 18.6263 6.951 19.7258 9.2025 19.7678C7.1295 21.3938 3.7395 21.9878 0.491998 21.9878C-0.165002 21.9728 -0.132001 22.7213 0.397499 22.9988C2.793 24.2558 6.717 24.9998 9.5205 24.9998C20.6655 24.9998 27 16.5053 27 8.49826C27 8.36926 26.997 8.09926 26.9925 7.82776C26.9925 7.80076 27 7.77526 27 7.74826C27 7.70776 26.988 7.66876 26.988 7.62826C26.9835 7.42426 26.979 7.23376 26.9745 7.13476C27.858 6.49726 29.211 5.39026 29.895 4.54276C30.1275 4.25476 29.94 3.90526 29.6235 4.01476C28.809 4.29826 27.4005 4.84726 26.5185 4.95226C28.284 3.78376 29.157 2.76676 29.907 1.63726C30.1635 1.25176 29.8425 0.860259 29.451 1.04626Z" fill="white"/>
</svg>
